<svg xmlns="http://www.w3.org/2000/svg" viewBox="0 0 20 20" width="20" height="20">
  <!-- 榴莲外壳 -->
  <path d="M10 1C6.5 1 4 4 4 7.5C4 11 5 15 10 19C15 15 16 11 16 7.5C16 4 13.5 1 10 1Z" fill="#8B7500"/>
  <!-- 榴莲刺 -->
  <path d="M10 2L9 4M10 2L11 4M10 2L8 3M10 2L12 3M7 3L6 5M7 3L5 4M13 3L14 5M13 3L15 4M6 6L5 8M6 6L4 7M14 6L15 8M14 6L16 7M7 9L6 11M7 9L5 10M13 9L14 11M13 9L15 10M10 12L9 14M10 12L11 14M10 12L8 13M10 12L12 13" stroke="#654321" stroke-width="0.5"/>
  <!-- 榴莲肉 -->
  <circle cx="10" cy="10" r="3" fill="#FFFACD"/>
</svg>